<svg width="120" height="48" xmlns="http://www.w3.org/2000/svg"><title>Layer 1</title><path fill="#1d6293" d="M9.052 0h3.267c1.2 0 2.38.148 3.536.442 1.157.272 2.224.92 3.2 1.94.385.386.713.806.986 1.26.295.43.534.873.715 1.325.203.432.35.852.442 1.26.09.386.135.726.135 1.02H19.6c0-.157-.045-.384-.136-.68-.09-.316-.216-.645-.374-.986-.16-.34-.363-.69-.613-1.053-.226-.362-.476-.68-.748-.952-.434-.454-.91-.806-1.43-1.056-.5-.25-1.02-.43-1.567-.545-.545-.113-1.09-.18-1.634-.204-.52-.022-1.02-.033-1.498-.033H9.766c-.476 0-.987.01-1.53.034-.523.023-1.056.09-1.6.205-.545.114-1.08.295-1.6.544-.52.225-1.01.554-1.462.986-.432.43-.77.92-1.022 1.463-.25.52-.43 1.065-.544 1.633-.113.567-.193 1.123-.237 1.667-.022.52-.033.997-.033 1.428V38.18c0 .41.01.874.034 1.396.046.52.125 1.054.24 1.6.112.566.294 1.122.543 1.666.25.545.59 1.032 1.02 1.463.454.453.943.794 1.464 1.02.545.25 1.09.42 1.634.51.546.115 1.08.183 1.6.205.545.023 1.056.035 1.53.035h1.738c.476 0 .986-.01 1.53-.034.546-.02 1.09-.09 1.635-.202.543-.09 1.076-.26 1.598-.51.524-.227 1.01-.567 1.465-1.02.432-.432.77-.92 1.02-1.464.25-.545.432-1.1.545-1.668.113-.545.18-1.078.204-1.6.045-.52.068-.986.068-1.395v-2.45h1.736v3.064c0 .454-.035.965-.103 1.53-.045.568-.147 1.147-.307 1.737-.158.59-.385 1.18-.68 1.77-.295.59-.68 1.134-1.157 1.633-.995 1.02-2.074 1.668-3.23 1.94-1.157.272-2.337.408-3.54.408H9.053c-1.224 0-2.415-.135-3.572-.407-1.134-.272-2.21-.92-3.233-1.94-.476-.5-.86-1.043-1.156-1.633-.293-.59-.52-1.18-.68-1.77-.16-.59-.272-1.17-.34-1.736-.047-.566-.07-1.077-.07-1.53V9.017c0-.454.024-.964.07-1.532.067-.59.18-1.18.34-1.77.16-.59.385-1.18.68-1.77.295-.588.68-1.12 1.157-1.597C3.244 1.35 4.32.714 5.48.442 6.66.148 7.85 0 9.052 0m-.477 28.925c.567.748 1.27 1.326 2.11 1.735.84.408 1.747.613 2.723.613 2.04 0 3.674-.794 4.9-2.382-.91-.882-1.805-1.472-2.69-1.767-.885-.295-1.622-.443-2.212-.443-.568 0-1.293.147-2.18.442-.883.295-1.767.896-2.652 1.804m11.16-4.594c0-1.294-.237-2.416-.713-3.37-.476-.975-1.1-1.826-1.87-2.55l1.018-1.466c.976.77 1.77 1.736 2.382 2.893.613 1.132.92 2.63.92 4.49 0 1.293-.217 2.484-.648 3.572-.408 1.067-.987 1.986-1.735 2.757-.727.75-1.578 1.326-2.553 1.735-.953.408-1.997.612-3.13.612-1.112 0-2.156-.205-3.13-.613-.977-.408-1.828-.987-2.553-1.736-.726-.772-1.304-1.69-1.735-2.757-.432-1.09-.646-2.28-.646-3.572 0-1.86.316-3.358.95-4.49.636-1.16 1.43-2.123 2.383-2.894l1.02 1.463c-.794.725-1.428 1.576-1.905 2.55-.476.954-.714 2.077-.714 3.37 0 .998.193 2.008.58 3.03.906-.885 1.86-1.51 2.857-1.873 1.02-.362 1.986-.544 2.894-.544.93 0 1.906.17 2.926.51 1.02.34 1.974.953 2.86 1.838.362-.952.543-1.938.543-2.96m15.653-4.83c-.158-.138-.488-.307-.987-.512-.5-.205-1.066-.33-1.7-.374-.204 0-.465.034-.783.102-.295.045-.578.124-.85.238-.273.113-.51.272-.716.476-.202.205-.305.442-.305.715 0 .34.238.647.715.92.477.25 1.056.498 1.737.747l2.313.75c.84.272 1.6.634 2.28 1.088.704.43 1.293.964 1.77 1.6.476.612.714 1.383.714 2.313 0 1.726-.5 2.973-1.497 3.745-.976.77-2.12 1.26-3.437 1.462v15.04h-1.736V32.974c-.136.022-.295.034-.476.034h-.92c-.815 0-1.598-.057-2.347-.17-.747-.114-1.416-.307-2.006-.58-.567-.27-1.02-.657-1.36-1.156-.342-.5-.512-1.134-.512-1.905 0-.884.41-1.68 1.226-2.382.817-.703 1.87-1.055 3.165-1.055 1.43 0 2.565.522 3.404 1.565.84 1.044 1.338 2.292 1.497 3.743.885-.16 1.645-.488 2.282-.986.657-.522.986-1.362.986-2.518 0-.68-.24-1.237-.715-1.668-.476-.454-1.066-.84-1.77-1.158-.68-.34-1.44-.635-2.28-.884-.838-.25-1.61-.534-2.313-.852-.68-.34-1.26-.725-1.736-1.156-.476-.453-.714-1.02-.714-1.7 0-.57.136-1.056.408-1.465.272-.406.624-.747 1.055-1.02.453-.27.93-.464 1.43-.577.52-.137 1.02-.205 1.496-.205.704 0 1.373.102 2.008.307.636.18 1.237.51 1.804.987L35.392 19.5M32.84 31.273c-.16-.976-.51-1.85-1.055-2.62-.543-.772-1.246-1.157-2.11-1.157-.702 0-1.325.16-1.87.476-.523.296-.783.704-.783 1.225 0 .477.148.85.443 1.123.295.274.647.49 1.055.648.43.136.907.227 1.43.272.543.023 1.066.035 1.564.035h1.327m7.62-26.068c-.476-.794-1.055-1.338-1.735-1.634-.703-.317-1.35-.476-1.94-.476-.567 0-1.134.113-1.7.34-.57.227-1.068.556-1.5.987-.452.41-.816.92-1.088 1.532-.295.612-.442 1.293-.442 2.04 0 .932.204 1.726.612 2.384.408.635.874 1.157 1.395 1.565.522.41 1.055.704 1.6.885.544.16.976.238 1.293.238v1.327c-.613 0-1.282-.136-2.008-.408-.75-.273-1.43-.68-2.042-1.226-.612-.542-1.123-1.21-1.53-2.005-.432-.817-.648-1.736-.648-2.757 0-.906.17-1.746.51-2.518.34-.772.795-1.43 1.362-1.974.543-.545 1.19-.964 1.94-1.26.723-.317 1.46-.475 2.21-.475 1.043 0 1.995.24 2.857.716.84.477 1.452 1.112 1.838 1.906l-.986.817m7.995 23.72c.567.746 1.27 1.324 2.11 1.733.84.41 1.746.614 2.722.614 2.042 0 3.675-.794 4.9-2.382-.907-.884-1.803-1.474-2.688-1.77-.885-.294-1.624-.44-2.213-.44-.567 0-1.293.146-2.178.44-.886.296-1.77.897-2.655 1.805m11.16-4.594c0-1.294-.237-2.415-.713-3.37-.477-.975-1.1-1.825-1.87-2.55l1.02-1.465c.975.77 1.77 1.738 2.38 2.894.614 1.135.92 2.632.92 4.492 0 1.294-.216 2.485-.647 3.574-.408 1.066-.987 1.985-1.735 2.756-.725.75-1.576 1.327-2.55 1.736-.953.408-1.997.612-3.132.612-1.11 0-2.155-.205-3.13-.613-.976-.407-1.826-.986-2.552-1.735-.726-.77-1.305-1.688-1.736-2.754-.432-1.09-.646-2.28-.646-3.573 0-1.86.318-3.358.953-4.49.635-1.158 1.428-2.123 2.382-2.894l1.02 1.463c-.796.727-1.43 1.578-1.907 2.553-.476.952-.714 2.075-.714 3.37 0 .996.192 2.006.577 3.027.907-.883 1.86-1.508 2.86-1.87 1.02-.363 1.983-.544 2.89-.544.93 0 1.907.17 2.928.51 1.02.34 1.973.952 2.858 1.837.363-.953.545-1.94.545-2.96m16.128.613c0 1.133-.215 2.19-.647 3.164-.43.953-1.01 1.803-1.736 2.552-.703.725-1.542 1.304-2.518 1.735-.953.408-1.962.612-3.028.612-.477 0-1-.057-1.567-.17-.543-.114-1.01-.26-1.393-.443l.68-1.565c.27.135.646.25 1.122.34.475.067.86.1 1.156.1.86 0 1.666-.17 2.414-.51.75-.34 1.397-.782 1.94-1.327.567-.566 1.01-1.236 1.328-2.007.34-.773.51-1.6.51-2.486 0-.84-.17-1.644-.51-2.415-.32-.796-.76-1.476-1.327-2.043-.543-.568-1.19-1.022-1.94-1.362-.75-.34-1.553-.51-2.415-.51-1.385 0-2.655.385-3.812 1.156-1.135.772-2.36 1.703-3.675 2.792l-1.022-1.53c.75-.546 1.43-1.068 2.043-1.567.61-.5 1.246-.93 1.904-1.292.635-.386 1.316-.692 2.042-.92.726-.25 1.565-.373 2.518-.373 1.067 0 2.076.215 3.03.646.975.43 1.813 1.01 2.517 1.736.727.727 1.305 1.59 1.737 2.587.432.976.648 2.008.648 3.097"/></svg>