<svg width="120" height="48" xmlns="http://www.w3.org/2000/svg"><title>Layer 1</title><path d="M11.18 4.284c2.857-1.455 6.152-1.884 9.32-1.58 2.68.2 5.42.84 7.653 2.397 1.38.967 2.437 2.455 2.63 4.155.2 1.643-.114 3.637-1.64 4.575 1.482.485 2.763 1.644 3.264 3.14.463 1.417.45 3.012-.124 4.397-.41.976-1.353 1.624-2.37 1.827 1.717 1.237 3.148 2.98 3.657 5.07.73 2.918.045 6.24-2.062 8.442-1.276 1.4-3.034 2.357-4.918 2.596-1.69.237-3.53.07-4.98-.9-1.11-.734-1.864-1.885-2.36-3.1-.446 1.413-1.402 2.69-2.765 3.324-1.703.797-3.672.916-5.51.63-2.853-.44-5.263-2.65-6.166-5.357-.57-1.764-.537-3.704-.01-5.473.347-1.176 1.15-2.202 2.242-2.77-1.158-.167-2.273-.527-3.39-.86-1.25-.355-2.52.117-3.653.628.38-1.295 1.033-2.646 2.297-3.277 1.556-.762 3.414-.4 4.89.38-1.203-.944-2.163-2.356-2.098-3.943-.05-2.07 1.455-3.955 3.373-4.614-.796-.375-1.416-1.085-1.647-1.94-.49-1.744-.097-3.71 1-5.152.863-1.153 2.095-1.956 3.364-2.596m-.63 3.877c-.946.464-1.766 1.41-1.666 2.522-.016.61.552 1.03 1.095 1.153 1.503.382 3.056-.048 4.47-.57-.433.81-.94 1.586-1.607 2.22 1.016.12 2.02.427 2.883.982 1.694 1.068 2.853 2.854 3.388 4.762.45-1.733 1.418-3.376 2.903-4.41.69-.497 1.48-.82 2.28-1.088-.86-.652-1.365-1.634-1.656-2.652 1.058.446 2.154.89 3.32.895.718.006 1.51-.034 2.105-.49.505-.45.402-1.247.176-1.815-.55-1.132-1.807-1.648-2.947-1.98-2.935-.782-6.004-.755-9.02-.7-1.94.135-3.958.284-5.725 1.17m1.245 7.65c.647.27 1.307.66 1.573 1.345.558 1.372.5 3.02-.278 4.3 1.295-.312 2.663-.427 3.97-.1.122-1.346-.267-2.77-1.273-3.71-1.092-1.003-2.492-1.75-3.992-1.834m9.317 5.618c1.332-.31 2.724-.355 4.075-.13-.467-.933-.598-2.115-.027-3.034.505-.842 1.46-1.236 2.353-1.53-.23.765-.55 1.53-.536 2.342.01.642.38 1.297 1.008 1.515.658.233 1.46.378 2.093 0 .598-.407.606-1.22.547-1.865-.076-.808-.724-1.44-1.442-1.74-1.222-.503-2.585-.592-3.887-.44-2.306.328-4.402 2.47-4.183 4.883M8.92 17.045c-.634.194-1.137.74-1.28 1.387-.288 1.134.527 2.405 1.693 2.564 1.16.17 2.246-.948 2.12-2.096.02-1.25-1.33-2.297-2.533-1.855m9.916 6.964c-1.26-.31-2.536-.643-3.844-.594-2.997.003-5.864 2.13-6.738 4.99-.41 1.506-.113 3.2.822 4.455 1.184 1.574 3.135 2.546 5.11 2.5 1.394.024 2.93-.305 3.86-1.434-.79-1.197-1.41-2.585-1.343-4.046.04-.94.268-1.975 1.01-2.617.71-.545 1.698-.468 2.504-.213.732.26 1.187.976 1.326 1.71.38 1.832-.25 3.7-1.202 5.252.723.68 1.647 1.11 2.623 1.263 1.57.232 3.25.1 4.657-.68 1.033-.565 1.788-1.57 2.13-2.69.46-1.524.54-3.232-.136-4.708-.853-1.847-2.64-3.203-4.62-3.63-1.855-.436-3.792-.142-5.582.442-.114-.404-.227-.805-.338-1.207-.083.402-.162.802-.238 1.205m.09 4.93c-.256 1.168-.196 2.407.102 3.564.43-1.062.63-2.244.41-3.377-.06-.193-.416-.508-.51-.188zm38.05-14.177c1.233-.923 2.804-1.17 4.3-1.312 1.73-.163 3.555.25 4.932 1.34 1.53 1.215 2.592 2.998 2.98 4.908.873-2.14 2.157-4.275 4.223-5.445 1.993-1.126 4.433-.98 6.556-.337 2.072.635 3.793 2.122 4.96 3.923 1.723 2.582 2.458 5.73 2.413 8.81.025 3.428-.927 6.926-3.01 9.68-1.166 1.54-2.905 2.674-4.834 2.947-1.464.227-3.04.146-4.39-.504-.927-.44-1.502-1.353-1.775-2.31-1.633 2.065-4.344 2.83-6.877 2.92-2.764.137-5.675-.53-7.817-2.356-1.75-1.44-2.88-3.587-3.08-5.845-.3-2.333.25-4.863 1.862-6.63.51-.575 1.103-1.065 1.734-1.497-1.755-.306-3.228-1.73-3.716-3.425-.418-1.722.07-3.777 1.543-4.867m5.126 1.02c.643.29 1.295.7 1.53 1.408.486 1.342.426 2.934-.354 4.156 1.235-.2 2.506-.285 3.743-.034.11-1.333-.247-2.746-1.234-3.694-1.01-.947-2.293-1.674-3.685-1.836m-3.184 1.276c-.78.305-1.227 1.185-1.11 1.996.1.99 1.02 1.844 2.026 1.792 1.122-.003 2.03-1.16 1.824-2.253-.158-1.23-1.593-2.09-2.74-1.534M72.65 19c-1.76 1.597-2.44 3.99-2.894 6.245.905-.088 1.84-.1 2.716.186 1.21.35 2.072 1.438 2.36 2.634.412 1.713.266 3.51-.06 5.225.687-.406 1.417-.73 2.16-1.02-.433 1.014-.868 2.117-.678 3.24.15.92.83 1.824 1.796 1.97 1.43.265 2.898-.464 3.795-1.56 1.247-1.536 1.74-3.53 1.94-5.458.21-3.045-.08-6.243-1.556-8.967-.847-1.593-2.26-2.94-4.026-3.432-1.854-.548-4.067-.414-5.556.94m-11.55 5.52c-1.397 1.21-2.38 2.99-2.362 4.866-.008 1.267.513 2.504 1.355 3.44 1.338 1.55 3.347 2.44 5.38 2.517 1.555.064 3.204-.084 4.56-.915 1.07-.646 1.756-1.8 1.97-3.015.173-1.028.25-2.124-.127-3.116-.332-.902-1.41-1.575-2.35-1.19-.346 1.21-.804 2.433-1.664 3.376-.704.793-1.835 1.176-2.877 1-.65-.12-1.32-.592-1.367-1.305-.123-.93.416-1.78 1.037-2.423.862-.867 1.874-1.63 3.052-2.01.144-.71.27-1.426.4-2.14-.914-.264-1.843-.523-2.802-.515-1.508-.03-3.052.437-4.203 1.43m4.663 5.137c.82-.458 1.427-1.23 1.73-2.11-.665.62-1.26 1.326-1.73 2.11zm35.19-15.758c2.712-.624 5.59-.693 8.28.08 2.884.82 5.415 2.706 7.158 5.128 1.345 1.872 2.1 4.133 2.25 6.424.247 3.266-.422 6.66-2.17 9.456.696-.013 1.506.008 2 .58.59.747.436 1.784.2 2.64-.81 2.664-2.675 5.01-5.136 6.33-2.41 1.31-5.194 1.74-7.908 1.784-3.315.03-6.737-.578-9.586-2.353-2.645-1.637-4.7-4.19-5.75-7.12-1.078-2.935-1.2-6.14-.856-9.223.41-3.504 1.868-6.912 4.298-9.492 1.913-2.092 4.46-3.59 7.22-4.23m-.796 2.757c-2.148 1.183-3.74 3.18-4.788 5.365-1.445 3.027-1.778 6.478-1.478 9.788.246 2.888 1.18 5.786 3.03 8.055 1.45 1.85 3.39 3.376 5.66 4.063 2.69.815 5.623.5 8.23-.475 1.5-.56 2.99-1.36 3.968-2.668.608-.798 1.008-1.824.852-2.836-.092-.453-.58-.583-.955-.71-1.858 1.79-4.59 2.452-7.1 2.036-2.536-.293-4.93-1.77-6.224-3.985-1.113-1.923-1.317-4.27-.91-6.425.27-1.428 1.096-2.752 2.35-3.505-1.025.005-2.107-.085-3.012-.61-.857-.493-1.31-1.494-1.31-2.46-.048-.668.32-1.255.602-1.832.413.548.852 1.107 1.463 1.45.977.603 2.2.404 3.255.138 1.425-.567 2.933-.883 4.436-1.17 1.382-.245 2.876.237 3.8 1.303.91.984 1.238 2.34 1.346 3.64-1.583-.913-3.24-2.153-5.175-1.895-1.398.08-2.81.63-3.667 1.78-2.195 2.334-1.832 6.477.703 8.42 2.01 1.66 5.184 1.662 7.175-.028 1.59-1.357 2.595-3.298 3.12-5.298.63-2.584.582-5.44-.675-7.836-1.514-2.846-4.353-5.04-7.58-5.49-2.413-.33-4.97-.002-7.114 1.19zM43.58 21.215c2.21-.24 4.517.31 6.332 1.616 1.664 1.133 3 2.8 3.54 4.758.645 2.324.4 4.92-.816 7.02-1.14 2.058-3.01 3.776-5.314 4.402-1.985.528-4.234.605-6.093-.382-1.323-.914-2.78-1.687-3.82-2.946-1.33-1.494-2.002-3.5-1.98-5.487-.026-2.698 1.3-5.32 3.34-7.046 1.344-1.145 3.06-1.78 4.808-1.937m-1.532 2.333c-.634.402-.882 1.23-.727 1.94.17.502.763.668 1.24.678 1.264.068 2.332-.74 3.31-1.434.153.814.24 1.7-.155 2.46-1.018 1.894-3.8 2.5-5.474 1.117-.99-.72-1.37-1.978-1.292-3.158-.93 1.657-1.24 3.625-.967 5.497.36 1.85 1.51 3.593 3.203 4.474 1.315.678 2.844.83 4.297.664 2.103-.274 3.97-1.707 4.9-3.592.522-1.063.707-2.27.638-3.443-.107-1.63-.916-3.16-2.06-4.3-1.125-1.095-2.756-1.516-4.293-1.415-.882.082-1.848-.005-2.62.51z" stroke="null" fill="#1d6293"/></svg>