<?xml version="1.0" standalone="no"?>
<!DOCTYPE svg PUBLIC "-//W3C//DTD SVG 20010904//EN"
 "http://www.w3.org/TR/2001/REC-SVG-20010904/DTD/svg10.dtd">
<svg version="1.0" xmlns="http://www.w3.org/2000/svg"
 width="1000.000000pt" height="1000.000000pt" viewBox="0 0 1000.000000 1000.000000"
 preserveAspectRatio="xMidYMid meet">

<g transform="translate(0.000000,1000.000000) scale(0.100000,-0.100000)"
fill="#000000" stroke="none">
<path d="M0 4998 l0 -5001 4988 7 c2743 3 4993 6 5000 6 9 0 12 1006 12 4995
l0 4995 -5000 0 -5000 0 0 -5002z m5245 3377 c176 -46 323 -128 447 -249 214
-208 311 -460 294 -761 -13 -243 -97 -438 -265 -617 -134 -143 -300 -241 -489
-288 -100 -25 -347 -28 -447 -5 -363 85 -652 361 -747 713 -30 115 -30 373 1
490 97 368 386 644 766 731 22 5 108 9 191 10 132 1 164 -2 249 -24z m1350
-1551 c61 -40 148 -103 195 -140 116 -93 351 -328 442 -444 339 -428 547 -931
611 -1479 l5 -44 -76 7 c-96 7 -301 -7 -406 -29 -181 -38 -379 -122 -541 -229
-120 -79 -331 -291 -409 -408 -115 -175 -195 -370 -236 -577 -29 -148 -29
-436 1 -582 55 -277 181 -538 346 -719 85 -93 85 -100 4 -152 -36 -23 -120
-70 -186 -104 -321 -167 -602 -256 -985 -310 -129 -18 -550 -21 -665 -5 -437
63 -745 162 -1070 343 -105 59 -215 127 -215 134 0 2 30 36 66 76 130 144 260
370 317 553 55 174 69 276 69 475 -1 261 -44 445 -156 675 -82 166 -165 284
-291 410 -183 183 -412 319 -650 388 -176 51 -241 60 -432 61 l-173 1 0 35 c1
70 46 309 85 450 164 584 507 1105 970 1475 105 84 305 216 322 213 9 -2 33
-43 54 -92 76 -178 183 -331 335 -482 236 -235 525 -377 872 -429 450 -67 940
97 1277 430 147 145 245 289 334 487 34 74 47 95 60 91 9 -3 66 -39 126 -79z
m-4044 -2672 c179 -47 325 -130 454 -257 180 -176 273 -364 306 -618 29 -222
-49 -496 -194 -684 -96 -125 -240 -242 -372 -303 -144 -66 -257 -90 -425 -90
-270 0 -488 89 -683 279 -135 131 -228 290 -273 470 -32 126 -34 345 -4 466
23 90 73 211 122 292 42 72 195 233 273 288 115 81 261 143 408 171 98 19 289
11 388 -14z m5296 13 c395 -75 694 -356 795 -748 31 -117 31 -337 1 -457 -97
-388 -391 -668 -788 -751 -98 -21 -304 -16 -410 11 -177 44 -347 140 -476 270
-293 297 -370 735 -194 1116 184 401 644 640 1072 559z"/>
<path d="M4844 4638 c-170 -484 -310 -887 -312 -895 -3 -11 29 -13 184 -11
l188 3 313 890 c172 490 313 891 313 893 0 1 -85 2 -188 2 l-188 0 -310 -882z"/>
<path d="M4112 4932 l-482 -175 2 -170 3 -171 475 -172 c261 -95 478 -173 483
-173 4 -1 7 70 7 157 l0 159 -289 99 c-160 54 -287 102 -283 105 4 3 131 48
282 99 151 51 278 96 283 100 4 3 6 76 5 162 l-3 155 -483 -175z"/>
<path d="M5402 4943 l3 -157 277 -96 c152 -52 279 -98 282 -101 3 -3 -118 -48
-270 -100 -151 -52 -280 -97 -285 -100 -6 -3 -8 -71 -7 -162 l3 -156 470 171
c259 94 476 175 483 181 9 7 12 50 10 171 l-3 161 -470 172 c-258 94 -476 172
-483 172 -10 1 -12 -34 -10 -156z"/>
</g>
</svg>
